<?xml version="1.0" standalone="no"?>
<!DOCTYPE svg PUBLIC "-//W3C//DTD SVG 20010904//EN"
 "http://www.w3.org/TR/2001/REC-SVG-20010904/DTD/svg10.dtd">
<svg version="1.0" xmlns="http://www.w3.org/2000/svg"
 width="700.000000pt" height="700.000000pt" viewBox="0 0 700.000000 700.000000"
 preserveAspectRatio="xMidYMid meet">
<metadata>
Created by potrace 1.14, written by Peter Selinger 2001-2017
</metadata>
<g transform="translate(0.000000,700.000000) scale(0.100000,-0.100000)"
fill="#000000" stroke="none">
<path d="M3345 6994 c-755 -37 -1445 -297 -2045 -773 -124 -99 -415 -389 -516
-516 -433 -542 -676 -1126 -759 -1821 -21 -168 -23 -535 -6 -709 101 -990 594
-1866 1386 -2460 497 -373 1069 -599 1710 -676 167 -21 616 -18 790 4 780 100
1462 426 2016 964 579 564 933 1276 1036 2088 22 175 25 623 4 790 -77 641
-303 1213 -676 1710 -586 782 -1453 1277 -2415 1379 -143 15 -409 25 -525 20z
m-961 -1628 c27 -8 65 -26 86 -40 23 -15 239 -268 532 -623 652 -789 838
-1016 838 -1023 0 -8 -1338 -1611 -1388 -1663 -26 -26 -76 -62 -112 -80 -59
-29 -73 -32 -155 -31 -107 0 -165 23 -232 91 -76 78 -95 212 -44 310 30 59 55
89 638 755 288 329 523 603 523 609 0 6 -241 285 -535 621 -395 451 -543 626
-565 671 -76 152 -8 325 156 392 70 29 183 33 258 11z m2503 -14 c165 -86 213
-266 111 -416 -13 -19 -195 -232 -405 -473 -209 -241 -407 -468 -439 -505 -32
-38 -63 -68 -68 -67 -16 0 -370 430 -370 448 0 23 775 951 817 979 73 49 126
62 222 59 69 -3 100 -9 132 -25z m-336 -2407 c248 -286 465 -538 482 -560 100
-134 92 -292 -19 -395 -72 -66 -122 -84 -239 -84 -113 -1 -161 15 -230 75 -31
27 -498 581 -794 941 l-63 77 194 235 c106 129 198 234 205 233 6 -1 215 -236
464 -522z"/>
</g>
</svg>
